<mxfile host="Electron" modified="2023-07-09T09:32:04.483Z" agent="Mozilla/5.0 (Windows NT 10.0; Win64; x64) AppleWebKit/537.36 (KHTML, like Gecko) draw.io/21.5.0 Chrome/112.0.5615.204 Electron/24.5.1 Safari/537.36" etag="NUuOoCEvnB2mgEMEQHx0" version="21.5.0" type="device">
  <diagram name="第 1 页" id="JqoffPR_x_UBBWckZMup">
    <mxGraphModel dx="729" dy="855" grid="1" gridSize="10" guides="1" tooltips="1" connect="1" arrows="1" fold="1" page="1" pageScale="1" pageWidth="1169" pageHeight="827" math="0" shadow="0">
      <root>
        <mxCell id="0" />
        <mxCell id="1" parent="0" />
        <mxCell id="7v3iK9AoGuIjmiTQBfwU-1" value="" style="shape=trapezoid;perimeter=trapezoidPerimeter;whiteSpace=wrap;html=1;fixedSize=1;rotation=90;size=10;" vertex="1" parent="1">
          <mxGeometry x="215" y="190" width="60" height="10" as="geometry" />
        </mxCell>
        <mxCell id="7v3iK9AoGuIjmiTQBfwU-2" value="" style="shape=trapezoid;perimeter=trapezoidPerimeter;whiteSpace=wrap;html=1;fixedSize=1;rotation=90;size=10;" vertex="1" parent="1">
          <mxGeometry x="215" y="310" width="60" height="10" as="geometry" />
        </mxCell>
        <mxCell id="7v3iK9AoGuIjmiTQBfwU-3" value="" style="shape=trapezoid;perimeter=trapezoidPerimeter;whiteSpace=wrap;html=1;fixedSize=1;rotation=90;size=10;" vertex="1" parent="1">
          <mxGeometry x="215" y="430" width="60" height="10" as="geometry" />
        </mxCell>
        <mxCell id="7v3iK9AoGuIjmiTQBfwU-4" value="" style="shape=trapezoid;perimeter=trapezoidPerimeter;whiteSpace=wrap;html=1;fixedSize=1;rotation=90;size=10;" vertex="1" parent="1">
          <mxGeometry x="215" y="550" width="60" height="10" as="geometry" />
        </mxCell>
        <mxCell id="7v3iK9AoGuIjmiTQBfwU-5" value="" style="endArrow=none;html=1;rounded=0;entryX=0.25;entryY=1;entryDx=0;entryDy=0;" edge="1" parent="1" target="7v3iK9AoGuIjmiTQBfwU-1">
          <mxGeometry width="50" height="50" relative="1" as="geometry">
            <mxPoint x="145" y="180" as="sourcePoint" />
            <mxPoint x="245" y="180" as="targetPoint" />
          </mxGeometry>
        </mxCell>
        <mxCell id="7v3iK9AoGuIjmiTQBfwU-6" value="&lt;font style=&quot;font-size: 8px;&quot;&gt;opcode0_rd_idx_o[4:0]&lt;/font&gt;" style="text;strokeColor=none;align=center;fillColor=none;html=1;verticalAlign=middle;whiteSpace=wrap;rounded=0;" vertex="1" parent="1">
          <mxGeometry x="151.75" y="167" width="88" height="10" as="geometry" />
        </mxCell>
        <mxCell id="7v3iK9AoGuIjmiTQBfwU-7" value="" style="endArrow=none;html=1;rounded=0;entryX=0.25;entryY=1;entryDx=0;entryDy=0;exitX=0.997;exitY=0.113;exitDx=0;exitDy=0;exitPerimeter=0;" edge="1" parent="1">
          <mxGeometry width="50" height="50" relative="1" as="geometry">
            <mxPoint x="100" y="210" as="sourcePoint" />
            <mxPoint x="240" y="210" as="targetPoint" />
          </mxGeometry>
        </mxCell>
        <mxCell id="7v3iK9AoGuIjmiTQBfwU-8" value="&lt;font style=&quot;font-size: 8px;&quot;&gt;opcode1_rd_idx_o[4:0]&lt;/font&gt;" style="text;strokeColor=none;align=center;fillColor=none;html=1;verticalAlign=middle;whiteSpace=wrap;rounded=0;" vertex="1" parent="1">
          <mxGeometry x="154" y="197" width="83.5" height="10" as="geometry" />
        </mxCell>
        <mxCell id="7v3iK9AoGuIjmiTQBfwU-9" value="" style="endArrow=none;html=1;rounded=0;entryX=0.25;entryY=1;entryDx=0;entryDy=0;" edge="1" parent="1">
          <mxGeometry width="50" height="50" relative="1" as="geometry">
            <mxPoint x="145" y="300" as="sourcePoint" />
            <mxPoint x="240" y="300" as="targetPoint" />
          </mxGeometry>
        </mxCell>
        <mxCell id="7v3iK9AoGuIjmiTQBfwU-10" value="&lt;font style=&quot;font-size: 8px;&quot;&gt;opcode1_ra_idx_o[4:0]&lt;/font&gt;" style="text;strokeColor=none;align=center;fillColor=none;html=1;verticalAlign=middle;whiteSpace=wrap;rounded=0;" vertex="1" parent="1">
          <mxGeometry x="151.75" y="318" width="76" height="10" as="geometry" />
        </mxCell>
        <mxCell id="7v3iK9AoGuIjmiTQBfwU-11" value="" style="endArrow=none;html=1;rounded=0;entryX=0.25;entryY=1;entryDx=0;entryDy=0;exitX=0.997;exitY=0.113;exitDx=0;exitDy=0;exitPerimeter=0;" edge="1" parent="1">
          <mxGeometry width="50" height="50" relative="1" as="geometry">
            <mxPoint x="100" y="330" as="sourcePoint" />
            <mxPoint x="240" y="330" as="targetPoint" />
          </mxGeometry>
        </mxCell>
        <mxCell id="7v3iK9AoGuIjmiTQBfwU-12" value="&lt;font style=&quot;font-size: 8px;&quot;&gt;opcode0_ra_idx_o[4:0]&lt;/font&gt;" style="text;strokeColor=none;align=center;fillColor=none;html=1;verticalAlign=middle;whiteSpace=wrap;rounded=0;" vertex="1" parent="1">
          <mxGeometry x="147.25" y="287" width="92.5" height="10" as="geometry" />
        </mxCell>
        <mxCell id="7v3iK9AoGuIjmiTQBfwU-13" value="" style="endArrow=none;html=1;rounded=0;entryX=0.25;entryY=1;entryDx=0;entryDy=0;" edge="1" parent="1">
          <mxGeometry width="50" height="50" relative="1" as="geometry">
            <mxPoint x="145" y="420" as="sourcePoint" />
            <mxPoint x="240" y="420" as="targetPoint" />
          </mxGeometry>
        </mxCell>
        <mxCell id="7v3iK9AoGuIjmiTQBfwU-14" value="&lt;font style=&quot;font-size: 8px;&quot;&gt;opcode_0_o[31:0]&lt;/font&gt;" style="text;strokeColor=none;align=center;fillColor=none;html=1;verticalAlign=middle;whiteSpace=wrap;rounded=0;" vertex="1" parent="1">
          <mxGeometry x="172.5" y="407" width="65" height="10" as="geometry" />
        </mxCell>
        <mxCell id="7v3iK9AoGuIjmiTQBfwU-15" value="" style="endArrow=none;html=1;rounded=0;entryX=0.25;entryY=1;entryDx=0;entryDy=0;exitX=0.997;exitY=0.113;exitDx=0;exitDy=0;exitPerimeter=0;" edge="1" parent="1">
          <mxGeometry width="50" height="50" relative="1" as="geometry">
            <mxPoint x="100" y="450" as="sourcePoint" />
            <mxPoint x="240" y="450" as="targetPoint" />
          </mxGeometry>
        </mxCell>
        <mxCell id="7v3iK9AoGuIjmiTQBfwU-16" value="&lt;font style=&quot;font-size: 8px;&quot;&gt;opcode_1_o[31:0]&lt;/font&gt;" style="text;strokeColor=none;align=center;fillColor=none;html=1;verticalAlign=middle;whiteSpace=wrap;rounded=0;" vertex="1" parent="1">
          <mxGeometry x="173" y="438" width="65" height="10" as="geometry" />
        </mxCell>
        <mxCell id="7v3iK9AoGuIjmiTQBfwU-17" value="" style="endArrow=none;html=1;rounded=0;entryX=0.25;entryY=1;entryDx=0;entryDy=0;" edge="1" parent="1">
          <mxGeometry width="50" height="50" relative="1" as="geometry">
            <mxPoint x="145" y="539" as="sourcePoint" />
            <mxPoint x="240" y="539" as="targetPoint" />
          </mxGeometry>
        </mxCell>
        <mxCell id="7v3iK9AoGuIjmiTQBfwU-18" value="&lt;font style=&quot;font-size: 8px;&quot;&gt;opcode_0_pc_o[31:0]&lt;/font&gt;" style="text;strokeColor=none;align=center;fillColor=none;html=1;verticalAlign=middle;whiteSpace=wrap;rounded=0;" vertex="1" parent="1">
          <mxGeometry x="158" y="526" width="80" height="10" as="geometry" />
        </mxCell>
        <mxCell id="7v3iK9AoGuIjmiTQBfwU-19" value="" style="endArrow=none;html=1;rounded=0;entryX=0.25;entryY=1;entryDx=0;entryDy=0;exitX=0.997;exitY=0.113;exitDx=0;exitDy=0;exitPerimeter=0;" edge="1" parent="1">
          <mxGeometry width="50" height="50" relative="1" as="geometry">
            <mxPoint x="100" y="569" as="sourcePoint" />
            <mxPoint x="240" y="569" as="targetPoint" />
          </mxGeometry>
        </mxCell>
        <mxCell id="7v3iK9AoGuIjmiTQBfwU-20" value="&lt;font style=&quot;font-size: 8px;&quot;&gt;opcode_1_pc_o[31:0]&lt;/font&gt;" style="text;strokeColor=none;align=center;fillColor=none;html=1;verticalAlign=middle;whiteSpace=wrap;rounded=0;" vertex="1" parent="1">
          <mxGeometry x="158" y="556" width="80" height="10" as="geometry" />
        </mxCell>
        <mxCell id="7v3iK9AoGuIjmiTQBfwU-21" value="" style="endArrow=none;html=1;rounded=0;" edge="1" parent="1">
          <mxGeometry width="50" height="50" relative="1" as="geometry">
            <mxPoint x="245" y="240" as="sourcePoint" />
            <mxPoint x="244.94" y="220" as="targetPoint" />
          </mxGeometry>
        </mxCell>
        <mxCell id="7v3iK9AoGuIjmiTQBfwU-22" value="&lt;font style=&quot;font-size: 8px;&quot;&gt;pipe1_mux_lsu_r&lt;/font&gt;" style="text;strokeColor=none;align=center;fillColor=none;html=1;verticalAlign=middle;whiteSpace=wrap;rounded=0;" vertex="1" parent="1">
          <mxGeometry x="210" y="240" width="65" height="10" as="geometry" />
        </mxCell>
        <mxCell id="7v3iK9AoGuIjmiTQBfwU-23" value="" style="endArrow=none;html=1;rounded=0;" edge="1" parent="1">
          <mxGeometry width="50" height="50" relative="1" as="geometry">
            <mxPoint x="245" y="360" as="sourcePoint" />
            <mxPoint x="244.94" y="340" as="targetPoint" />
          </mxGeometry>
        </mxCell>
        <mxCell id="7v3iK9AoGuIjmiTQBfwU-24" value="&lt;font style=&quot;font-size: 8px;&quot;&gt;pipe1_mux_lsu_r&lt;/font&gt;" style="text;strokeColor=none;align=center;fillColor=none;html=1;verticalAlign=middle;whiteSpace=wrap;rounded=0;" vertex="1" parent="1">
          <mxGeometry x="210" y="360" width="65" height="10" as="geometry" />
        </mxCell>
        <mxCell id="7v3iK9AoGuIjmiTQBfwU-25" value="" style="endArrow=none;html=1;rounded=0;" edge="1" parent="1">
          <mxGeometry width="50" height="50" relative="1" as="geometry">
            <mxPoint x="245" y="480" as="sourcePoint" />
            <mxPoint x="244.94" y="460" as="targetPoint" />
          </mxGeometry>
        </mxCell>
        <mxCell id="7v3iK9AoGuIjmiTQBfwU-26" value="&lt;font style=&quot;font-size: 8px;&quot;&gt;pipe1_mux_lsu_r&lt;/font&gt;" style="text;strokeColor=none;align=center;fillColor=none;html=1;verticalAlign=middle;whiteSpace=wrap;rounded=0;" vertex="1" parent="1">
          <mxGeometry x="210" y="480" width="65" height="10" as="geometry" />
        </mxCell>
        <mxCell id="7v3iK9AoGuIjmiTQBfwU-27" value="" style="endArrow=none;html=1;rounded=0;" edge="1" parent="1">
          <mxGeometry width="50" height="50" relative="1" as="geometry">
            <mxPoint x="245" y="600" as="sourcePoint" />
            <mxPoint x="244.94" y="580" as="targetPoint" />
          </mxGeometry>
        </mxCell>
        <mxCell id="7v3iK9AoGuIjmiTQBfwU-28" value="&lt;font style=&quot;font-size: 8px;&quot;&gt;pipe1_mux_lsu_r&lt;/font&gt;" style="text;strokeColor=none;align=center;fillColor=none;html=1;verticalAlign=middle;whiteSpace=wrap;rounded=0;" vertex="1" parent="1">
          <mxGeometry x="210" y="600" width="65" height="10" as="geometry" />
        </mxCell>
        <mxCell id="7v3iK9AoGuIjmiTQBfwU-30" value="" style="endArrow=classic;html=1;rounded=0;exitX=0.584;exitY=-0.016;exitDx=0;exitDy=0;exitPerimeter=0;endFill=1;" edge="1" parent="1" source="7v3iK9AoGuIjmiTQBfwU-1">
          <mxGeometry width="50" height="50" relative="1" as="geometry">
            <mxPoint x="250" y="217" as="sourcePoint" />
            <mxPoint x="334.44444444444446" y="200" as="targetPoint" />
          </mxGeometry>
        </mxCell>
        <mxCell id="7v3iK9AoGuIjmiTQBfwU-31" value="&lt;font style=&quot;font-size: 8px;&quot;&gt;lsu_opcode_rd_idx_o[4:0]&lt;/font&gt;" style="text;strokeColor=none;align=center;fillColor=none;html=1;verticalAlign=middle;whiteSpace=wrap;rounded=0;" vertex="1" parent="1">
          <mxGeometry x="338" y="193" width="92" height="10" as="geometry" />
        </mxCell>
        <mxCell id="7v3iK9AoGuIjmiTQBfwU-33" value="" style="endArrow=classic;html=1;rounded=0;exitX=0.584;exitY=-0.016;exitDx=0;exitDy=0;exitPerimeter=0;endFill=1;" edge="1" parent="1">
          <mxGeometry width="50" height="50" relative="1" as="geometry">
            <mxPoint x="250" y="317" as="sourcePoint" />
            <mxPoint x="334.44444444444446" y="317" as="targetPoint" />
          </mxGeometry>
        </mxCell>
        <mxCell id="7v3iK9AoGuIjmiTQBfwU-34" value="&lt;font style=&quot;font-size: 8px;&quot;&gt;lsu_opcode_ra_idx_o[31:0]&lt;/font&gt;" style="text;strokeColor=none;align=center;fillColor=none;html=1;verticalAlign=middle;whiteSpace=wrap;rounded=0;" vertex="1" parent="1">
          <mxGeometry x="338" y="310" width="102" height="10" as="geometry" />
        </mxCell>
        <mxCell id="7v3iK9AoGuIjmiTQBfwU-35" value="" style="endArrow=classic;html=1;rounded=0;exitX=0.584;exitY=-0.016;exitDx=0;exitDy=0;exitPerimeter=0;endFill=1;" edge="1" parent="1">
          <mxGeometry width="50" height="50" relative="1" as="geometry">
            <mxPoint x="250" y="437" as="sourcePoint" />
            <mxPoint x="334.44444444444446" y="437" as="targetPoint" />
          </mxGeometry>
        </mxCell>
        <mxCell id="7v3iK9AoGuIjmiTQBfwU-36" value="&lt;font style=&quot;font-size: 8px;&quot;&gt;lsu_opcode_opcode_o[31:0]&lt;/font&gt;" style="text;strokeColor=none;align=center;fillColor=none;html=1;verticalAlign=middle;whiteSpace=wrap;rounded=0;" vertex="1" parent="1">
          <mxGeometry x="338" y="430" width="112" height="10" as="geometry" />
        </mxCell>
        <mxCell id="7v3iK9AoGuIjmiTQBfwU-37" value="" style="endArrow=classic;html=1;rounded=0;exitX=0.584;exitY=-0.016;exitDx=0;exitDy=0;exitPerimeter=0;endFill=1;" edge="1" parent="1">
          <mxGeometry width="50" height="50" relative="1" as="geometry">
            <mxPoint x="250" y="557" as="sourcePoint" />
            <mxPoint x="334.44444444444446" y="557" as="targetPoint" />
          </mxGeometry>
        </mxCell>
        <mxCell id="7v3iK9AoGuIjmiTQBfwU-38" value="&lt;font style=&quot;font-size: 8px;&quot;&gt;lsu_opcode_pc_o[31:0]&lt;/font&gt;" style="text;strokeColor=none;align=center;fillColor=none;html=1;verticalAlign=middle;whiteSpace=wrap;rounded=0;" vertex="1" parent="1">
          <mxGeometry x="338" y="550" width="72" height="10" as="geometry" />
        </mxCell>
        <mxCell id="7v3iK9AoGuIjmiTQBfwU-39" value="" style="shape=trapezoid;perimeter=trapezoidPerimeter;whiteSpace=wrap;html=1;fixedSize=1;rotation=90;size=10;" vertex="1" parent="1">
          <mxGeometry x="665" y="309.5" width="60" height="10" as="geometry" />
        </mxCell>
        <mxCell id="7v3iK9AoGuIjmiTQBfwU-40" value="" style="shape=trapezoid;perimeter=trapezoidPerimeter;whiteSpace=wrap;html=1;fixedSize=1;rotation=90;size=10;" vertex="1" parent="1">
          <mxGeometry x="665" y="429.5" width="60" height="10" as="geometry" />
        </mxCell>
        <mxCell id="7v3iK9AoGuIjmiTQBfwU-42" value="" style="endArrow=none;html=1;rounded=0;entryX=0.25;entryY=1;entryDx=0;entryDy=0;" edge="1" parent="1" target="7v3iK9AoGuIjmiTQBfwU-39">
          <mxGeometry width="50" height="50" relative="1" as="geometry">
            <mxPoint x="595" y="299.5" as="sourcePoint" />
            <mxPoint x="695" y="299.5" as="targetPoint" />
          </mxGeometry>
        </mxCell>
        <mxCell id="7v3iK9AoGuIjmiTQBfwU-43" value="&lt;font style=&quot;font-size: 8px;&quot;&gt;opcode_1_ra_oprand_o[31:0]&lt;/font&gt;" style="text;strokeColor=none;align=center;fillColor=none;html=1;verticalAlign=middle;whiteSpace=wrap;rounded=0;" vertex="1" parent="1">
          <mxGeometry x="582" y="316.5" width="105" height="10" as="geometry" />
        </mxCell>
        <mxCell id="7v3iK9AoGuIjmiTQBfwU-44" value="" style="endArrow=none;html=1;rounded=0;entryX=0.25;entryY=1;entryDx=0;entryDy=0;exitX=0.997;exitY=0.113;exitDx=0;exitDy=0;exitPerimeter=0;" edge="1" parent="1">
          <mxGeometry width="50" height="50" relative="1" as="geometry">
            <mxPoint x="550" y="329.5" as="sourcePoint" />
            <mxPoint x="690" y="329.5" as="targetPoint" />
          </mxGeometry>
        </mxCell>
        <mxCell id="7v3iK9AoGuIjmiTQBfwU-45" value="&lt;font style=&quot;font-size: 8px;&quot;&gt;opcode0_ra_oprand_o[31:0]&lt;/font&gt;" style="text;strokeColor=none;align=center;fillColor=none;html=1;verticalAlign=middle;whiteSpace=wrap;rounded=0;" vertex="1" parent="1">
          <mxGeometry x="586.5" y="286.5" width="101" height="10" as="geometry" />
        </mxCell>
        <mxCell id="7v3iK9AoGuIjmiTQBfwU-46" value="" style="endArrow=none;html=1;rounded=0;entryX=0.25;entryY=1;entryDx=0;entryDy=0;" edge="1" parent="1">
          <mxGeometry width="50" height="50" relative="1" as="geometry">
            <mxPoint x="595" y="419.5" as="sourcePoint" />
            <mxPoint x="690" y="419.5" as="targetPoint" />
          </mxGeometry>
        </mxCell>
        <mxCell id="7v3iK9AoGuIjmiTQBfwU-47" value="&lt;font style=&quot;font-size: 8px;&quot;&gt;opcode1_rb_oprand_o[31:0]&lt;/font&gt;" style="text;strokeColor=none;align=center;fillColor=none;html=1;verticalAlign=middle;whiteSpace=wrap;rounded=0;" vertex="1" parent="1">
          <mxGeometry x="584" y="437.5" width="105" height="10" as="geometry" />
        </mxCell>
        <mxCell id="7v3iK9AoGuIjmiTQBfwU-48" value="" style="endArrow=none;html=1;rounded=0;entryX=0.25;entryY=1;entryDx=0;entryDy=0;exitX=0.997;exitY=0.113;exitDx=0;exitDy=0;exitPerimeter=0;" edge="1" parent="1">
          <mxGeometry width="50" height="50" relative="1" as="geometry">
            <mxPoint x="550" y="449.5" as="sourcePoint" />
            <mxPoint x="690" y="449.5" as="targetPoint" />
          </mxGeometry>
        </mxCell>
        <mxCell id="7v3iK9AoGuIjmiTQBfwU-49" value="&lt;font style=&quot;font-size: 8px;&quot;&gt;opcode0_rb_oprand_o[31:0]&lt;/font&gt;" style="text;strokeColor=none;align=center;fillColor=none;html=1;verticalAlign=middle;whiteSpace=wrap;rounded=0;" vertex="1" parent="1">
          <mxGeometry x="587.5" y="406.5" width="105" height="10" as="geometry" />
        </mxCell>
        <mxCell id="7v3iK9AoGuIjmiTQBfwU-54" value="" style="endArrow=none;html=1;rounded=0;" edge="1" parent="1">
          <mxGeometry width="50" height="50" relative="1" as="geometry">
            <mxPoint x="695" y="359.5" as="sourcePoint" />
            <mxPoint x="694.94" y="339.5" as="targetPoint" />
          </mxGeometry>
        </mxCell>
        <mxCell id="7v3iK9AoGuIjmiTQBfwU-55" value="&lt;font style=&quot;font-size: 8px;&quot;&gt;pipe1_mux_lsu_r&lt;/font&gt;" style="text;strokeColor=none;align=center;fillColor=none;html=1;verticalAlign=middle;whiteSpace=wrap;rounded=0;" vertex="1" parent="1">
          <mxGeometry x="660" y="359.5" width="65" height="10" as="geometry" />
        </mxCell>
        <mxCell id="7v3iK9AoGuIjmiTQBfwU-56" value="" style="endArrow=none;html=1;rounded=0;" edge="1" parent="1">
          <mxGeometry width="50" height="50" relative="1" as="geometry">
            <mxPoint x="695" y="479.5" as="sourcePoint" />
            <mxPoint x="694.94" y="459.5" as="targetPoint" />
          </mxGeometry>
        </mxCell>
        <mxCell id="7v3iK9AoGuIjmiTQBfwU-57" value="&lt;font style=&quot;font-size: 8px;&quot;&gt;pipe1_mux_lsu_r&lt;/font&gt;" style="text;strokeColor=none;align=center;fillColor=none;html=1;verticalAlign=middle;whiteSpace=wrap;rounded=0;" vertex="1" parent="1">
          <mxGeometry x="660" y="479.5" width="65" height="10" as="geometry" />
        </mxCell>
        <mxCell id="7v3iK9AoGuIjmiTQBfwU-60" value="" style="endArrow=classic;html=1;rounded=0;exitX=0.584;exitY=-0.016;exitDx=0;exitDy=0;exitPerimeter=0;endFill=1;" edge="1" parent="1" source="7v3iK9AoGuIjmiTQBfwU-39">
          <mxGeometry width="50" height="50" relative="1" as="geometry">
            <mxPoint x="700" y="336.5" as="sourcePoint" />
            <mxPoint x="784.4444444444445" y="319.5" as="targetPoint" />
          </mxGeometry>
        </mxCell>
        <mxCell id="7v3iK9AoGuIjmiTQBfwU-61" value="&lt;font style=&quot;font-size: 8px;&quot;&gt;lsu_opcode_ra_oprand_o[31:0]&lt;/font&gt;" style="text;strokeColor=none;align=center;fillColor=none;html=1;verticalAlign=middle;whiteSpace=wrap;rounded=0;" vertex="1" parent="1">
          <mxGeometry x="788" y="312.5" width="112" height="10" as="geometry" />
        </mxCell>
        <mxCell id="7v3iK9AoGuIjmiTQBfwU-62" value="" style="endArrow=classic;html=1;rounded=0;exitX=0.584;exitY=-0.016;exitDx=0;exitDy=0;exitPerimeter=0;endFill=1;" edge="1" parent="1">
          <mxGeometry width="50" height="50" relative="1" as="geometry">
            <mxPoint x="700" y="436.5" as="sourcePoint" />
            <mxPoint x="784.4444444444445" y="436.5" as="targetPoint" />
          </mxGeometry>
        </mxCell>
        <mxCell id="7v3iK9AoGuIjmiTQBfwU-63" value="&lt;font style=&quot;font-size: 8px;&quot;&gt;lsu_opcode_rb_oprand_o[31:0]&lt;/font&gt;" style="text;strokeColor=none;align=center;fillColor=none;html=1;verticalAlign=middle;whiteSpace=wrap;rounded=0;" vertex="1" parent="1">
          <mxGeometry x="788" y="429.5" width="112" height="10" as="geometry" />
        </mxCell>
        <mxCell id="7v3iK9AoGuIjmiTQBfwU-66" value="" style="shape=trapezoid;perimeter=trapezoidPerimeter;whiteSpace=wrap;html=1;fixedSize=1;rotation=90;size=10;" vertex="1" parent="1">
          <mxGeometry x="665" y="183.5" width="60" height="10" as="geometry" />
        </mxCell>
        <mxCell id="7v3iK9AoGuIjmiTQBfwU-67" value="" style="endArrow=none;html=1;rounded=0;entryX=0.25;entryY=1;entryDx=0;entryDy=0;" edge="1" parent="1" target="7v3iK9AoGuIjmiTQBfwU-66">
          <mxGeometry width="50" height="50" relative="1" as="geometry">
            <mxPoint x="595" y="173.5" as="sourcePoint" />
            <mxPoint x="695" y="173.5" as="targetPoint" />
          </mxGeometry>
        </mxCell>
        <mxCell id="7v3iK9AoGuIjmiTQBfwU-68" value="&lt;font style=&quot;font-size: 8px;&quot;&gt;opcode0_rb_idx_o[4:0]&lt;/font&gt;" style="text;strokeColor=none;align=center;fillColor=none;html=1;verticalAlign=middle;whiteSpace=wrap;rounded=0;" vertex="1" parent="1">
          <mxGeometry x="601.75" y="160.5" width="88" height="10" as="geometry" />
        </mxCell>
        <mxCell id="7v3iK9AoGuIjmiTQBfwU-69" value="" style="endArrow=none;html=1;rounded=0;entryX=0.25;entryY=1;entryDx=0;entryDy=0;exitX=0.997;exitY=0.113;exitDx=0;exitDy=0;exitPerimeter=0;" edge="1" parent="1">
          <mxGeometry width="50" height="50" relative="1" as="geometry">
            <mxPoint x="550" y="203.5" as="sourcePoint" />
            <mxPoint x="690" y="203.5" as="targetPoint" />
          </mxGeometry>
        </mxCell>
        <mxCell id="7v3iK9AoGuIjmiTQBfwU-70" value="&lt;font style=&quot;font-size: 8px;&quot;&gt;opcode1_rb_idx_o[4:0]&lt;/font&gt;" style="text;strokeColor=none;align=center;fillColor=none;html=1;verticalAlign=middle;whiteSpace=wrap;rounded=0;" vertex="1" parent="1">
          <mxGeometry x="604" y="190.5" width="83.5" height="10" as="geometry" />
        </mxCell>
        <mxCell id="7v3iK9AoGuIjmiTQBfwU-71" value="" style="endArrow=none;html=1;rounded=0;" edge="1" parent="1">
          <mxGeometry width="50" height="50" relative="1" as="geometry">
            <mxPoint x="695" y="233.5" as="sourcePoint" />
            <mxPoint x="694.94" y="213.5" as="targetPoint" />
          </mxGeometry>
        </mxCell>
        <mxCell id="7v3iK9AoGuIjmiTQBfwU-72" value="&lt;font style=&quot;font-size: 8px;&quot;&gt;pipe1_mux_lsu_r&lt;/font&gt;" style="text;strokeColor=none;align=center;fillColor=none;html=1;verticalAlign=middle;whiteSpace=wrap;rounded=0;" vertex="1" parent="1">
          <mxGeometry x="660" y="233.5" width="65" height="10" as="geometry" />
        </mxCell>
        <mxCell id="7v3iK9AoGuIjmiTQBfwU-73" value="" style="endArrow=classic;html=1;rounded=0;exitX=0.584;exitY=-0.016;exitDx=0;exitDy=0;exitPerimeter=0;endFill=1;" edge="1" parent="1" source="7v3iK9AoGuIjmiTQBfwU-66">
          <mxGeometry width="50" height="50" relative="1" as="geometry">
            <mxPoint x="700" y="210.5" as="sourcePoint" />
            <mxPoint x="784.4444444444445" y="193.5" as="targetPoint" />
          </mxGeometry>
        </mxCell>
        <mxCell id="7v3iK9AoGuIjmiTQBfwU-74" value="&lt;font style=&quot;font-size: 8px;&quot;&gt;lsu_opcode_rb_idx_o[4:0]&lt;/font&gt;" style="text;strokeColor=none;align=center;fillColor=none;html=1;verticalAlign=middle;whiteSpace=wrap;rounded=0;" vertex="1" parent="1">
          <mxGeometry x="788" y="186.5" width="92" height="10" as="geometry" />
        </mxCell>
      </root>
    </mxGraphModel>
  </diagram>
</mxfile>
